<svg width="320" height="320" viewBox="0 0 320 320" fill="none" xmlns="http://www.w3.org/2000/svg">
  <defs>
    <linearGradient id="ringA" x1="30" y1="60" x2="290" y2="260" gradientUnits="userSpaceOnUse">
      <stop stop-color="#1bbecf"/>
      <stop offset="0.5" stop-color="#a63bb6"/>
      <stop offset="1" stop-color="#1bbecf"/>
    </linearGradient>
    <linearGradient id="ringB" x1="280" y1="50" x2="60" y2="280" gradientUnits="userSpaceOnUse">
      <stop stop-color="#e85ba7"/>
      <stop offset="0.5" stop-color="#2f65d9"/>
      <stop offset="1" stop-color="#e85ba7"/>
    </linearGradient>
    <linearGradient id="heartGrad" x1="100" y1="120" x2="220" y2="220" gradientUnits="userSpaceOnUse">
      <stop stop-color="#1bbecf"/>
      <stop offset="1" stop-color="#e85ba7"/>
    </linearGradient>
    <linearGradient id="handshakeGrad" x1="120" y1="180" x2="220" y2="200" gradientUnits="userSpaceOnUse">
      <stop stop-color="#2f65d9"/>
      <stop offset="1" stop-color="#a63bb6"/>
    </linearGradient>
  </defs>
  <g>
    <path d="M48 98c0-18 10-34 26-42l76-38c10-5 22-5 32 0l76 38c16 8 26 24 26 42v124c0 18-10 34-26 42l-76 38c-10 5-22 5-32 0l-76-38c-16-8-26-24-26-42V98Z" fill="url(#ringA)" opacity="0.18"/>
    <path d="M70 90c0-16 9-30 23-38l67-36c9-5 21-5 30 0l67 36c14 8 23 22 23 38v140c0 16-9 30-23 38l-67 36c-9 5-21 5-30 0l-67-36c-14-8-23-22-23-38V90Z" fill="url(#ringB)" opacity="0.22"/>
    <path d="M160 260s-72-44-92-102c-12-35 4-74 37-92 25-13 55-8 75 12 20-20 50-25 75-12 33 18 49 57 37 92-20 58-92 102-92 102-8 5-20 5-28 0Z" fill="none" stroke="url(#ringA)" stroke-width="14" stroke-linecap="round" stroke-linejoin="round"/>
    <path d="M160 248s-64-39-81-90c-10-30 3-64 32-79 21-11 46-6 63 10 17-16 42-21 63-10 29 15 42 49 32 79-17 51-81 90-81 90-6 3-15 3-22 0Z" fill="none" stroke="url(#ringB)" stroke-width="10" stroke-linecap="round" stroke-linejoin="round"/>
    <path d="M159 232s-53-31-67-72c-8-24 2-50 24-62 17-9 37-5 50 8 13-13 33-17 50-8 22 12 32 38 24 62-14 41-67 72-67 72-5 3-11 3-16 0Z" fill="none" stroke="#ffffff" stroke-width="12" stroke-linecap="round" stroke-linejoin="round"/>
    <path d="M160 216c-22-14-56-45-56-76 0-21 16-38 36-38 10 0 20 5 26 13 6-8 16-13 26-13 20 0 36 17 36 38 0 31-34 62-56 76-4 2-8 2-12 0Z" fill="url(#heartGrad)" stroke="#ffffff" stroke-width="6" stroke-linecap="round" stroke-linejoin="round"/>
    <path d="M132 164 150 180c4 4 10 4 14 0l18-16 22 12c6 3 8 11 4 16l-11 15c-5 6-13 8-20 4l-7-4c-5 9-18 12-26 5l-24-21c-6-5-6-15 0-20l12-11c4-4 11-4 16 0Z" fill="url(#handshakeGrad)" stroke="#ffffff" stroke-width="6" stroke-linejoin="round"/>
    <path d="M150 140c-2-6-8-10-15-10-9 0-17 8-17 18 0 3 1 6 3 8l7 8 22-24Z" fill="#1bbecf"/>
    <path d="M170 140c2-6 8-10 15-10 9 0 17 8 17 18 0 3-1 6-3 8l-7 8-22-24Z" fill="#e85ba7"/>
    <path d="M142 166c5 5 13 5 18 0" stroke="#ffffff" stroke-width="5" stroke-linecap="round"/>
  </g>
</svg>

